<svg width="1600" height="999" viewBox="0 0 1600 999" fill="none" xmlns="http://www.w3.org/2000/svg">
<g clip-path="url(#clip0_389_293)">
<path d="M1600 0H0V1000H1600V0Z" fill="white"/>
<path d="M6.25 422.224C61.4785 422.224 106.25 377.172 106.25 321.599C106.25 266.025 61.4785 220.974 6.25 220.974C-48.9785 220.974 -93.75 266.025 -93.75 321.599C-93.75 377.172 -48.9785 422.224 6.25 422.224Z" fill="#EEFBFF"/>
<path d="M-4.65043 258.837C-5.52696 254.254 -4.46883 249.055 -1.80967 244.285C1.11159 239.11 2.98456 233.609 4.36197 227.882C5.49631 223.166 7.25009 218.732 11.839 216.109C17.3905 213.027 22.794 213.987 27.5731 217.43C33.5673 221.649 39.8141 225.16 46.6185 227.954C51.8456 230.105 55.5956 233.826 56.453 239.746C57.7628 249.384 54.2173 255.097 44.4107 255.872C33.8132 256.736 24.7022 260.219 16.3868 266.679C8.49083 272.88 -0.519571 266.917 -4.65043 258.837ZM19.4052 229.562C14.8782 231.241 13.3772 233.026 14.4682 235.689C15.5926 238.441 20.2671 240.491 22.9498 239.394C25.5421 238.33 28.044 233.412 26.8052 230.907C25.1423 227.536 22.1213 228.554 19.4052 229.562Z" fill="#E8056C" fill-opacity="0.24"/>
<path d="M4.95855 201.175C7.40265 208.04 6.16345 213.306 2.30837 215.964C-1.5467 218.621 -7.09795 217.818 -11.4196 213.388C-15.584 209.104 -19.0336 204.247 -17.2321 197.444C-15.8356 192.324 -10.3414 189.365 -5.28102 191.066C0.184406 193.026 3.21951 197.32 4.95855 201.175Z" fill="#E8056C" fill-opacity="0.24"/>
<path d="M12.0955 199.037C9.94198 194.621 10.6331 190.376 12.263 185.886C14.7984 179.116 23.5853 176.981 28.1785 183.254C32.0665 188.459 33.4575 193.874 31.7275 200.037C30.5741 204.146 28.2391 207.57 23.3691 208.047C18.2849 208.501 15.445 205.567 13.2438 201.577C12.7625 200.836 12.4291 199.936 12.0955 199.037Z" fill="#E8056C" fill-opacity="0.24"/>
<path d="M56.1499 197.01C56.4739 197.606 56.7407 198.325 56.9169 199.078C58.4033 205.583 57.7931 211.434 52.8181 216.348C49.1154 219.97 44.0692 219.695 40.5338 215.996C35.1686 210.419 34.6546 199.873 39.6821 193.711C41.8884 191.052 44.4378 189.595 48.3642 190.184C52.8766 190.964 54.5299 194.033 56.1499 197.01ZM52.1277 205.048C52.3566 202.61 51.4562 200.184 49.6932 198.485C48.6258 197.553 47.3869 196.989 45.3951 197.728C42.4979 198.803 40.7298 203.754 42.2116 207.193C43.2359 209.676 44.8368 212.048 48.3106 210.861C50.3929 210.089 51.8751 207.698 52.1277 205.048Z" fill="#E8056C" fill-opacity="0.24"/>
<path d="M34.9322 277.796C29.8384 279.891 24.0154 281.131 17.8114 279.956C16.2436 279.617 14.8904 279.301 13.5847 278.559C11.0975 277.129 9.48226 275.274 10.8881 272.4C12.294 269.526 15.053 268.912 17.8595 269.814C32.874 274.47 43.4764 270.842 53.4219 257.949C54.332 256.794 54.7562 253.772 56.8719 255.032C58.4586 255.979 56.9431 258.279 56.3475 259.727C52.554 269.214 45.4394 275.022 34.9322 277.796Z" fill="#E8056C" fill-opacity="0.24"/>
<path d="M66.4182 300.22C67.8556 303.356 72.1713 307.634 77.9361 299.652C83.7008 291.671 88.1427 298.509 89.6431 302.925C91.0488 305.421 95.6856 308.4 102.986 300.344C112.112 290.272 120.263 299.492 120.357 301.413C120.452 303.333 128.509 310.633 135.525 296.816" stroke="black" stroke-width="0.5"/>
<path d="M106.25 352.775C113.499 352.775 119.375 346.899 119.375 339.65C119.375 332.401 113.499 326.525 106.25 326.525C99.0013 326.525 93.125 332.401 93.125 339.65C93.125 346.899 99.0013 352.775 106.25 352.775Z" stroke="#FFC3DE"/>
<path d="M178.75 723.75C207.745 723.75 231.25 699.685 231.25 670C231.25 640.315 207.745 616.25 178.75 616.25C149.755 616.25 126.25 640.315 126.25 670C126.25 699.685 149.755 723.75 178.75 723.75Z" fill="#EEFBFF"/>
<path d="M412.576 109.317C413.222 110.728 415.164 112.652 417.756 109.062C420.349 105.473 422.346 108.548 423.021 110.534C423.654 111.657 425.74 112.997 429.022 109.373C433.127 104.843 436.794 108.99 436.836 109.854C436.879 110.717 440.502 114.001 443.659 107.787" stroke="black" stroke-width="0.5"/>
<path d="M226.326 915.567C226.972 916.977 228.914 918.902 231.506 915.312C234.099 911.722 236.096 914.797 236.771 916.784C237.404 917.906 239.49 919.246 242.772 915.622C246.877 911.094 250.544 915.24 250.586 916.104C250.629 916.967 254.252 920.251 257.409 914.036" stroke="black" stroke-width="0.5"/>
<path d="M196.638 712.263C195.891 708.361 196.791 703.938 199.055 699.878C201.541 695.474 203.135 690.793 204.308 685.919C205.273 681.906 206.765 678.132 210.67 675.9C215.394 673.277 219.993 674.095 224.06 677.024C229.161 680.614 234.478 683.603 240.268 685.98C244.716 687.81 247.908 690.978 248.638 696.015C249.751 704.218 246.735 709.079 238.389 709.739C229.37 710.474 221.616 713.438 214.54 718.935C207.82 724.213 200.153 719.139 196.638 712.263ZM217.109 687.349C213.256 688.778 211.979 690.296 212.908 692.563C213.864 694.905 217.843 696.649 220.125 695.715C222.331 694.81 224.461 690.626 223.406 688.493C221.991 685.624 219.42 686.491 217.109 687.349Z" fill="#E8056C" fill-opacity="0.24"/>
<path d="M204.815 663.19C206.895 669.032 205.841 673.515 202.56 675.776C199.279 678.037 194.555 677.354 190.878 673.584C187.334 669.937 184.398 665.805 185.931 660.015C187.119 655.657 191.795 653.14 196.101 654.587C200.753 656.256 203.335 659.91 204.815 663.19Z" fill="#E8056C" fill-opacity="0.24"/>
<path d="M210.891 661.373C209.058 657.614 209.646 654.001 211.034 650.18C213.191 644.419 220.669 642.601 224.578 647.94C227.886 652.369 229.07 656.977 227.598 662.223C226.616 665.72 224.629 668.633 220.485 669.039C216.158 669.426 213.741 666.929 211.868 663.534C211.459 662.903 211.175 662.138 210.891 661.373Z" fill="#E8056C" fill-opacity="0.24"/>
<path d="M175.204 686.622C173.899 683.104 174.418 679.777 177.22 677.171C180.071 674.46 183.461 674.856 186.701 676.265C192.126 678.602 194.994 683.022 195.874 688.701C196.393 691.989 195.164 695.056 192.041 696.562C188.205 698.509 184.271 697.356 181.133 695.04C178.368 693.02 176.174 690.179 175.204 686.622ZM190.095 685.884C188.789 682.365 184.873 680.076 182.338 681.277C179.726 682.507 179.721 684.859 180.574 687.154C181.738 690.29 185.281 692.282 187.853 691.415C190.934 690.272 190.448 688.016 190.095 685.884Z" fill="#E8056C" fill-opacity="0.24"/>
<path d="M248.379 659.646C248.655 660.154 248.883 660.765 249.033 661.406C250.298 666.941 249.778 671.92 245.544 676.102C242.393 679.186 238.099 678.951 235.09 675.804C230.524 671.057 230.086 662.082 234.365 656.84C236.243 654.576 238.413 653.336 241.754 653.837C245.594 654.501 247.001 657.112 248.379 659.646ZM244.956 666.486C245.151 664.412 244.385 662.346 242.885 660.901C241.976 660.107 240.923 659.629 239.226 660.257C236.761 661.172 235.256 665.385 236.518 668.311C237.389 670.425 238.751 672.444 241.708 671.434C243.48 670.776 244.741 668.741 244.956 666.486Z" fill="#E8056C" fill-opacity="0.24"/>
<path d="M230.321 728.396C225.986 730.179 221.031 731.235 215.751 730.235C214.418 729.946 213.266 729.678 212.155 729.045C210.038 727.829 208.664 726.25 209.86 723.805C211.056 721.359 213.404 720.836 215.793 721.604C228.57 725.565 237.593 722.479 246.056 711.506C246.831 710.523 247.193 707.952 248.993 709.025C250.343 709.829 249.054 711.788 248.546 713.02C245.319 721.093 239.264 726.036 230.321 728.396Z" fill="#E8056C" fill-opacity="0.24"/>
<path d="M316.48 371.25C336.5 371.25 352.73 355.3 352.73 335.625C352.73 315.95 336.5 300 316.48 300C296.46 300 280.23 315.95 280.23 335.625C280.23 355.3 296.46 371.25 316.48 371.25Z" fill="#EEFBFF"/>
<path d="M292.657 311.066C292.13 308.314 292.766 305.191 294.364 302.326C296.117 299.217 297.242 295.914 298.07 292.475C298.751 289.642 299.805 286.979 302.561 285.404C305.895 283.553 309.14 284.129 312.011 286.196C315.611 288.73 319.362 290.839 323.45 292.518C326.589 293.809 328.841 296.044 329.356 299.6C330.142 305.389 328.014 308.82 322.124 309.285C315.759 309.804 310.286 311.896 305.292 315.775C300.55 319.5 295.137 315.919 292.657 311.066ZM307.105 293.484C304.386 294.492 303.485 295.564 304.14 297.162C304.815 298.816 307.622 300.047 309.234 299.387C310.791 298.749 312.294 295.796 311.55 294.291C310.551 292.266 308.736 292.878 307.105 293.484Z" fill="#F0E0A6" fill-opacity="0.43"/>
<path d="M298.429 276.434C299.896 280.558 299.152 283.72 296.836 285.316C294.521 286.913 291.187 286.43 288.591 283.769C286.09 281.196 284.019 278.279 285.1 274.193C285.939 271.118 289.239 269.34 292.279 270.363C295.561 271.54 297.384 274.119 298.429 276.434Z" fill="#F0E0A6" fill-opacity="0.43"/>
<path d="M302.716 275.15C301.422 272.498 301.838 269.949 302.816 267.251C304.34 263.185 309.617 261.903 312.376 265.67C314.711 268.796 315.546 272.049 314.507 275.751C313.815 278.219 312.412 280.275 309.487 280.561C306.434 280.835 304.728 279.073 303.406 276.676C303.116 276.23 302.916 275.69 302.716 275.15Z" fill="#F0E0A6" fill-opacity="0.43"/>
<path d="M277.529 292.971C276.607 290.488 276.974 288.14 278.951 286.301C280.964 284.388 283.356 284.666 285.642 285.661C289.472 287.311 291.495 290.43 292.116 294.438C292.482 296.759 291.615 298.923 289.411 299.986C286.704 301.36 283.927 300.546 281.712 298.911C279.761 297.486 278.212 295.481 277.529 292.971ZM288.039 292.45C287.116 289.966 284.352 288.351 282.564 289.199C280.72 290.068 280.717 291.726 281.319 293.346C282.14 295.56 284.641 296.966 286.455 296.354C288.63 295.546 288.287 293.955 288.039 292.45Z" fill="#F0E0A6" fill-opacity="0.43"/>
<path d="M329.175 273.933C329.37 274.29 329.53 274.723 329.636 275.174C330.529 279.081 330.162 282.595 327.175 285.546C324.95 287.723 321.92 287.558 319.796 285.335C316.574 281.986 316.265 275.651 319.285 271.951C320.61 270.354 322.141 269.479 324.5 269.833C327.21 270.301 328.202 272.144 329.175 273.933ZM326.76 278.76C326.897 277.296 326.356 275.839 325.297 274.819C324.656 274.258 323.912 273.92 322.716 274.364C320.976 275.009 319.914 277.983 320.804 280.048C321.419 281.539 322.381 282.964 324.467 282.251C325.717 281.788 326.607 280.351 326.76 278.76Z" fill="#F0E0A6" fill-opacity="0.43"/>
<path d="M316.431 322.454C313.371 323.711 309.875 324.456 306.149 323.75C305.206 323.547 304.394 323.358 303.61 322.911C302.116 322.053 301.146 320.939 301.99 319.212C302.835 317.486 304.491 317.118 306.177 317.659C315.195 320.455 321.562 318.277 327.536 310.533C328.082 309.839 328.337 308.025 329.609 308.781C330.561 309.349 329.651 310.731 329.294 311.601C327.015 317.299 322.741 320.788 316.431 322.454Z" fill="#F0E0A6" fill-opacity="0.43"/>
<path d="M266.329 334.439C266.997 335.899 269.007 337.891 271.691 334.175C274.376 330.459 276.444 333.643 277.142 335.699C277.797 336.861 279.956 338.248 283.356 334.496C287.605 329.806 291.401 334.1 291.445 334.994C291.489 335.888 295.24 339.288 298.507 332.854" stroke="black" stroke-width="0.5"/>
<path d="M412.619 627.869C413.634 630.083 416.679 633.101 420.748 627.467C424.816 621.835 427.951 626.661 429.01 629.777C430.003 631.54 433.275 633.642 438.428 627.956C444.869 620.847 450.621 627.355 450.689 628.71C450.755 630.065 456.441 635.217 461.394 625.466" stroke="black" stroke-width="0.5"/>
<path d="M313.355 349.098C313.355 351.798 310.9 354.098 307.73 354.098C304.559 354.098 302.105 351.798 302.105 349.098C302.105 346.396 304.559 344.098 307.73 344.098C310.9 344.098 313.355 346.396 313.355 349.098Z" stroke="#FFC3DE"/>
<path d="M415.625 96.875C415.625 99.7076 413.599 101.875 411.25 101.875C408.901 101.875 406.875 99.7076 406.875 96.875C406.875 94.0424 408.901 91.875 411.25 91.875C413.599 91.875 415.625 94.0424 415.625 96.875Z" stroke="#FFC3DE"/>
<path d="M1306.57 340.913C1305.8 336.819 1306.74 332.174 1309.11 327.913C1311.72 323.29 1313.4 318.376 1314.62 313.26C1315.64 309.048 1317.21 305.086 1321.31 302.743C1326.27 299.989 1331.1 300.848 1335.36 303.923C1340.72 307.691 1346.3 310.828 1352.37 313.324C1357.05 315.245 1360.4 318.57 1361.16 323.859C1362.34 332.469 1359.16 337.571 1350.41 338.264C1340.94 339.036 1332.8 342.148 1325.37 347.918C1318.31 353.459 1310.27 348.131 1306.57 340.913ZM1328.06 314.76C1324.02 316.261 1322.69 317.855 1323.66 320.234C1324.66 322.693 1328.84 324.524 1331.24 323.544C1333.55 322.593 1335.79 318.2 1334.67 315.963C1333.2 312.95 1330.5 313.86 1328.06 314.76Z" fill="#E8056C" fill-opacity="0.12"/>
<path d="M1315.16 289.401C1317.35 295.534 1316.24 300.239 1312.8 302.613C1309.35 304.986 1304.39 304.269 1300.54 300.311C1296.81 296.484 1293.73 292.146 1295.34 286.068C1296.59 281.494 1301.5 278.85 1306.01 280.371C1310.9 282.123 1313.61 285.958 1315.16 289.401Z" fill="#E8056C" fill-opacity="0.12"/>
<path d="M1321.54 287.492C1319.61 283.546 1320.24 279.755 1321.69 275.744C1323.95 269.695 1331.8 267.789 1335.91 273.391C1339.37 278.041 1340.63 282.879 1339.08 288.385C1338.05 292.056 1335.96 295.114 1331.61 295.54C1327.08 295.946 1324.54 293.325 1322.56 289.761C1322.14 289.099 1321.84 288.295 1321.54 287.492Z" fill="#E8056C" fill-opacity="0.12"/>
<path d="M1284.08 313.997C1282.71 310.304 1283.25 306.812 1286.19 304.077C1289.19 301.231 1292.75 301.646 1296.15 303.125C1301.84 305.58 1304.85 310.219 1305.77 316.18C1306.31 319.631 1305.03 322.851 1301.75 324.432C1297.73 326.475 1293.6 325.266 1290.3 322.834C1287.4 320.714 1285.1 317.731 1284.08 313.997ZM1299.71 313.222C1298.34 309.529 1294.22 307.126 1291.56 308.387C1288.83 309.679 1288.83 312.147 1289.71 314.556C1290.94 317.849 1294.65 319.94 1297.35 319.03C1300.59 317.829 1300.08 315.461 1299.71 313.222Z" fill="#E8056C" fill-opacity="0.12"/>
<path d="M1360.89 285.681C1361.19 286.212 1361.43 286.855 1361.58 287.527C1362.91 293.339 1362.36 298.565 1357.91 302.955C1354.61 306.192 1350.1 305.946 1346.94 302.641C1342.15 297.659 1341.69 288.237 1346.19 282.734C1348.15 280.359 1350.43 279.056 1353.94 279.582C1357.98 280.28 1359.45 283.02 1360.89 285.681ZM1357.3 292.86C1357.5 290.684 1356.7 288.515 1355.13 286.999C1354.18 286.165 1353.06 285.661 1351.29 286.322C1348.7 287.282 1347.11 291.705 1348.44 294.777C1349.36 296.995 1350.79 299.114 1353.89 298.054C1355.75 297.364 1357.07 295.229 1357.3 292.86Z" fill="#E8056C" fill-opacity="0.12"/>
<path d="M1341.94 357.85C1337.39 359.721 1332.19 360.829 1326.65 359.779C1325.25 359.476 1324.04 359.194 1322.88 358.53C1320.65 357.254 1319.2 355.596 1320.46 353.03C1321.71 350.462 1324.17 349.914 1326.69 350.719C1340.1 354.877 1349.57 351.637 1358.46 340.12C1359.27 339.087 1359.65 336.389 1361.54 337.515C1362.96 338.359 1361.6 340.414 1361.07 341.707C1357.69 350.182 1351.33 355.372 1341.94 357.85Z" fill="#E8056C" fill-opacity="0.12"/>
<path d="M1375.01 385.22C1376.45 388.356 1380.76 392.634 1386.54 384.652C1392.3 376.671 1396.74 383.509 1398.24 387.925C1399.65 390.421 1404.29 393.4 1411.59 385.344C1420.71 375.272 1428.86 384.492 1428.95 386.412C1429.05 388.332 1437.1 395.632 1444.13 381.816" stroke="black" stroke-width="0.5"/>
<path d="M1414.85 437.775C1422.1 437.775 1427.98 431.899 1427.98 424.65C1427.98 417.401 1422.1 411.525 1414.85 411.525C1407.6 411.525 1401.73 417.401 1401.73 424.65C1401.73 431.899 1407.6 437.775 1414.85 437.775Z" stroke="#FFC3DE"/>
<path d="M1487.35 808.75C1516.35 808.75 1539.85 784.685 1539.85 755C1539.85 725.315 1516.35 701.25 1487.35 701.25C1458.36 701.25 1434.85 725.315 1434.85 755C1434.85 784.685 1458.36 808.75 1487.35 808.75Z" fill="#EEFBFF"/>
<path d="M1534.92 1000.57C1535.56 1001.98 1537.51 1003.9 1540.1 1000.31C1542.7 996.722 1544.69 999.797 1545.36 1001.78C1546 1002.91 1548.09 1004.25 1551.37 1000.62C1555.47 996.094 1559.14 1000.24 1559.19 1001.1C1559.22 1001.97 1562.85 1005.25 1566 999.036" stroke="black" stroke-width="0.5"/>
<path d="M1505.24 797.262C1504.49 793.361 1505.39 788.937 1507.65 784.877C1510.14 780.474 1511.72 775.792 1512.9 770.919C1513.86 766.906 1515.36 763.132 1519.26 760.9C1523.99 758.277 1528.59 759.095 1532.65 762.024C1537.76 765.614 1543.07 768.603 1548.86 770.98C1553.31 772.81 1556.5 775.978 1557.24 781.015C1558.35 789.218 1555.32 794.079 1546.99 794.739C1537.96 795.474 1530.21 798.437 1523.14 803.935C1516.41 809.212 1508.75 804.139 1505.24 797.262ZM1525.7 772.349C1521.85 773.778 1520.57 775.296 1521.5 777.562C1522.46 779.905 1526.44 781.649 1528.72 780.715C1530.92 779.81 1533.06 775.626 1532 773.493C1530.59 770.624 1528.01 771.491 1525.7 772.349Z" fill="#E8056C" fill-opacity="0.24"/>
<path d="M1513.41 748.19C1515.49 754.032 1514.44 758.515 1511.15 760.776C1507.87 763.037 1503.15 762.354 1499.47 758.584C1495.92 754.937 1492.99 750.805 1494.52 745.015C1495.71 740.657 1500.39 738.14 1504.7 739.587C1509.35 741.256 1511.94 744.91 1513.41 748.19Z" fill="#E8056C" fill-opacity="0.24"/>
<path d="M1519.49 746.372C1517.65 742.614 1518.24 739.001 1519.62 735.18C1521.79 729.419 1529.26 727.601 1533.17 732.94C1536.49 737.369 1537.66 741.977 1536.2 747.222C1535.21 750.72 1533.22 753.632 1529.07 754.039C1524.75 754.426 1522.34 751.929 1520.46 748.534C1520.05 747.902 1519.77 747.137 1519.49 746.372Z" fill="#E8056C" fill-opacity="0.24"/>
<path d="M1483.8 771.622C1482.5 768.104 1483.01 764.777 1485.81 762.171C1488.66 759.46 1492.06 759.856 1495.3 761.265C1500.72 763.602 1503.59 768.022 1504.47 773.701C1504.99 776.989 1503.76 780.056 1500.64 781.562C1496.8 783.509 1492.86 782.356 1489.72 780.04C1486.96 778.02 1484.77 775.179 1483.8 771.622ZM1498.69 770.884C1497.39 767.365 1493.46 765.076 1490.94 766.277C1488.32 767.507 1488.31 769.859 1489.17 772.154C1490.34 775.29 1493.87 777.282 1496.45 776.415C1499.52 775.272 1499.04 773.016 1498.69 770.884Z" fill="#E8056C" fill-opacity="0.24"/>
<path d="M1556.97 744.646C1557.25 745.154 1557.47 745.765 1557.62 746.406C1558.89 751.941 1558.38 756.92 1554.14 761.103C1550.99 764.186 1546.7 763.951 1543.69 760.804C1539.12 756.057 1538.69 747.082 1542.96 741.84C1544.84 739.576 1547.01 738.336 1550.35 738.838C1554.19 739.501 1555.6 742.112 1556.97 744.646ZM1553.55 751.486C1553.75 749.413 1552.98 747.346 1551.48 745.901C1550.58 745.108 1549.51 744.629 1547.83 745.257C1545.36 746.172 1543.85 750.385 1545.11 753.311C1545.99 755.425 1547.35 757.444 1550.3 756.434C1552.07 755.776 1553.34 753.741 1553.55 751.486Z" fill="#E8056C" fill-opacity="0.24"/>
<path d="M1538.91 813.396C1534.59 815.179 1529.62 816.235 1524.35 815.235C1523.01 814.946 1521.86 814.678 1520.75 814.045C1518.64 812.829 1517.26 811.25 1518.45 808.805C1519.65 806.359 1522 805.836 1524.39 806.604C1537.16 810.565 1546.19 807.479 1554.65 796.506C1555.42 795.523 1555.79 792.952 1557.59 794.025C1558.94 794.829 1557.65 796.788 1557.14 798.02C1553.91 806.093 1547.86 811.036 1538.91 813.396Z" fill="#E8056C" fill-opacity="0.24"/>
<path d="M1625.08 456.25C1645.1 456.25 1661.33 440.3 1661.33 420.625C1661.33 400.95 1645.1 385 1625.08 385C1605.05 385 1588.83 400.95 1588.83 420.625C1588.83 440.3 1605.05 456.25 1625.08 456.25Z" fill="#EEFBFF"/>
<path d="M1607.03 361.434C1608.49 365.557 1607.75 368.72 1605.44 370.316C1603.11 371.912 1599.79 371.43 1597.19 368.769C1594.69 366.196 1592.61 363.279 1593.7 359.192C1594.54 356.117 1597.84 354.34 1600.87 355.362C1604.16 356.54 1605.98 359.119 1607.03 361.434Z" fill="#F0E0A6"/>
<path d="M1586.12 377.971C1585.2 375.488 1585.57 373.14 1587.55 371.301C1589.56 369.388 1591.95 369.666 1594.24 370.661C1598.06 372.311 1600.09 375.43 1600.71 379.437C1601.07 381.759 1600.21 383.923 1598.01 384.986C1595.3 386.36 1592.52 385.546 1590.31 383.911C1588.36 382.486 1586.81 380.481 1586.12 377.971ZM1596.64 377.45C1595.71 374.966 1592.95 373.351 1591.16 374.199C1589.31 375.068 1589.31 376.726 1589.91 378.346C1590.74 380.56 1593.24 381.966 1595.05 381.354C1597.22 380.546 1596.89 378.955 1596.64 377.45Z" fill="#F0E0A6"/>
<path d="M1574.92 419.439C1575.6 420.899 1577.6 422.891 1580.29 419.175C1582.97 415.459 1585.04 418.642 1585.74 420.699C1586.39 421.861 1588.55 423.247 1591.95 419.496C1596.2 414.806 1600 419.1 1600.04 419.994C1600.09 420.887 1603.84 424.287 1607.1 417.854" stroke="black" stroke-width="0.5"/>
<path d="M626.79 633.436C634.299 638.772 644.378 639.562 652.479 635.017C660.384 630.472 664.731 621.58 663.348 612.49C662.558 607.945 660.384 604.19 657.419 601.226C656.826 600.04 656.036 598.855 655.245 597.867C649.713 591.147 640.623 588.184 632.323 591.147C624.023 593.915 617.7 601.226 616.514 610.119C615.13 619.011 619.28 628.101 626.79 633.436ZM657.419 613.676C657.024 621.382 650.108 627.311 642.994 629.09C635.88 630.867 628.173 628.101 623.825 622.172C619.874 616.442 620.071 608.142 624.814 602.807C629.951 597.076 639.239 596.089 646.353 598.065C649.515 598.855 652.281 600.239 654.455 602.214C654.653 602.412 654.653 602.61 654.85 603.005C649.12 597.866 639.831 595.891 632.718 598.46C625.209 601.226 620.861 609.526 622.64 617.43C624.419 625.335 632.718 630.077 640.425 628.891C648.526 627.706 654.85 619.604 652.874 611.305C651.096 603.597 641.215 598.46 634.496 603.4C628.568 607.747 627.58 617.43 634.694 620.987C637.659 622.569 641.413 622.766 644.378 621.185C647.341 619.604 648.923 616.442 648.724 613.082C648.526 609.921 646.749 606.561 643.784 605.179C640.623 603.597 636.275 604.586 634.299 607.55C632.125 610.514 632.915 615.059 636.275 616.837C639.436 618.616 643.586 616.245 643.981 612.687C644.378 609.526 640.623 606.364 637.659 608.537C635.286 610.316 636.868 614.466 639.831 614.071C640.425 613.874 640.425 612.885 639.634 612.885C637.856 613.082 637.065 610.514 638.646 609.526C640.228 608.537 642.401 610.119 642.401 611.897C642.401 613.676 641.018 615.454 639.239 615.651C637.46 615.85 635.88 614.664 635.286 613.082C633.509 609.526 637.065 605.969 640.623 605.969C646.551 605.969 649.318 614.861 644.97 618.616C640.425 622.569 632.323 619.209 631.533 613.479C631.138 610.316 632.718 606.957 635.089 604.981C637.856 602.807 641.61 602.412 644.773 603.795C647.934 605.179 650.503 607.945 651.096 611.305C651.886 614.664 650.898 618.419 648.923 621.185C644.97 626.717 637.46 627.904 631.73 624.742C625.801 621.58 623.233 614.861 625.406 608.537C626.394 605.574 628.568 602.807 631.335 601.226C634.891 599.25 639.239 598.855 643.191 599.645C649.91 601.226 657.616 605.969 657.419 613.676ZM644.97 593.915C646.353 594.507 647.736 595.297 649.12 596.089C647.934 595.694 646.749 595.297 645.365 595.1C636.67 593.52 626.196 595.495 621.256 603.4C622.443 601.226 623.825 599.447 625.604 597.669C630.741 593.124 638.449 591.346 644.97 593.915ZM620.664 621.58C621.849 623.754 623.43 625.73 625.406 627.509C632.52 633.436 642.796 633.832 650.503 628.891C656.826 624.94 661.569 616.837 659.395 609.526C659.395 609.329 659.395 609.329 659.395 609.131C659.395 608.932 659.395 608.735 659.395 608.735C659.989 610.119 660.581 611.502 660.779 612.885C661.964 619.999 659 627.311 653.071 631.461C646.946 635.809 639.041 636.599 632.125 633.635C626.79 631.065 622.838 626.717 620.664 621.58Z" fill="#E1F9F9" fill-opacity="0.76"/>
<path d="M627.164 380.087C621.236 384.435 613.134 385.027 606.613 381.274C600.289 377.519 596.733 370.602 597.918 363.291C598.51 359.734 600.289 356.572 602.66 354.2C603.254 353.212 603.649 352.225 604.439 351.434C608.786 346.099 616.098 343.727 622.816 345.901C629.535 348.075 634.476 354.002 635.464 360.919C636.254 368.626 633.092 375.937 627.164 380.087ZM602.66 364.476C602.858 370.602 608.589 375.345 614.121 376.729C619.853 378.111 625.979 375.937 629.338 371.195C632.5 366.65 632.303 359.931 628.548 355.781C624.398 351.236 617.086 350.446 611.355 352.026C608.786 352.62 606.613 353.805 604.834 355.386C604.636 355.584 604.636 355.781 604.439 355.979C608.984 351.829 616.493 350.249 622.026 352.422C628.153 354.596 631.511 361.315 630.129 367.44C628.745 373.764 622.224 377.519 616.098 376.729C609.576 375.937 604.636 369.219 606.218 362.697C607.6 356.572 615.505 352.422 621.037 356.374C625.781 359.734 626.571 367.637 620.84 370.405C618.469 371.59 615.505 371.787 613.134 370.602C610.763 369.416 609.576 366.847 609.774 364.081C609.973 361.512 611.355 358.944 613.726 357.757C616.295 356.572 619.655 357.362 621.434 359.734C623.211 362.105 622.421 365.662 619.853 367.045C617.284 368.429 614.121 366.65 613.726 363.884C613.331 361.315 616.493 358.944 618.666 360.524C620.643 361.907 619.26 365.266 616.889 364.871C616.295 364.871 616.493 363.884 617.086 363.884C618.469 364.081 619.063 361.907 617.876 361.315C616.691 360.524 614.913 361.907 614.913 363.092C614.913 364.476 616.098 365.86 617.481 366.057C618.865 366.255 620.05 365.266 620.643 364.081C622.026 361.117 619.26 358.35 616.295 358.35C611.553 358.35 609.379 365.464 612.936 368.429C616.493 371.59 623.014 369.021 623.607 364.279C624.002 361.71 622.619 359.141 620.643 357.56C618.469 355.781 615.505 355.584 612.936 356.572C610.368 357.757 608.391 359.931 607.799 362.697C607.205 365.465 607.996 368.231 609.576 370.602C612.739 374.95 618.666 375.937 623.41 373.566C628.153 370.997 630.129 365.662 628.35 360.524C627.559 358.152 625.979 355.979 623.607 354.596C620.84 353.015 617.284 352.817 614.121 353.41C608.589 354.399 602.463 358.152 602.66 364.476ZM612.541 348.47C611.355 348.865 610.368 349.457 609.379 350.249C610.368 349.852 611.355 349.655 612.344 349.457C619.26 348.075 627.559 349.852 631.511 355.979C630.721 354.2 629.535 352.817 627.955 351.434C623.805 347.877 617.876 346.494 612.541 348.47ZM632.104 370.602C631.116 372.381 629.931 373.961 628.35 375.345C622.619 380.087 614.518 380.285 608.391 376.53C603.254 373.369 599.499 366.847 601.278 361.117C601.278 360.919 601.278 360.919 601.278 360.721C601.278 360.524 601.278 360.524 601.278 360.326C600.881 361.315 600.486 362.5 600.289 363.686C599.301 369.416 601.673 375.147 606.415 378.506C611.355 382.064 617.679 382.656 623.014 380.087C626.966 378.309 630.326 374.752 632.104 370.602Z" fill="#E1F9F9" fill-opacity="0.76"/>
<path d="M655.025 444.904C649.098 449.251 640.995 449.844 634.474 446.09C628.15 442.335 624.594 435.419 625.779 428.107C626.371 424.55 628.15 421.389 630.521 419.017C631.115 418.029 631.51 417.041 632.3 416.25C636.647 410.915 643.959 408.544 650.677 410.718C657.396 412.891 662.337 418.82 663.325 425.736C664.312 433.245 660.954 440.556 655.025 444.904ZM630.521 429.095C630.719 435.221 636.45 439.964 641.982 441.348C647.714 442.73 653.84 440.556 657.199 435.814C660.361 431.269 660.164 424.55 656.409 420.4C652.259 415.855 644.947 415.065 639.216 416.646C636.647 417.239 634.474 418.424 632.695 420.005C632.498 420.202 632.498 420.4 632.3 420.597C636.845 416.447 644.354 414.867 649.887 417.041C656.014 419.215 659.373 425.934 657.99 432.059C656.606 438.383 650.085 442.138 643.959 441.348C637.437 440.556 632.498 433.838 634.079 427.316C635.461 421.191 643.366 417.041 648.899 420.993C653.643 424.353 654.432 432.258 648.701 435.024C646.33 436.209 643.366 436.406 640.995 435.221C638.624 434.035 637.438 431.466 637.635 428.7C637.834 426.131 639.216 423.563 641.588 422.376C644.156 421.191 647.516 421.981 649.295 424.352C651.072 426.724 650.283 430.281 647.714 431.664C645.145 433.047 641.983 431.269 641.588 428.503C641.193 425.934 644.354 423.563 646.527 425.143C648.504 426.526 647.121 429.885 644.75 429.49C644.156 429.49 644.354 428.503 644.948 428.503C646.33 428.7 646.924 426.526 645.738 425.934C644.553 425.143 642.774 426.526 642.774 427.711C642.774 429.095 643.959 430.479 645.342 430.676C646.726 430.874 647.911 429.885 648.504 428.7C649.887 425.736 647.121 422.969 644.156 422.969C639.414 422.969 637.24 430.084 640.797 433.047C644.354 436.209 650.875 433.64 651.469 428.898C651.864 426.329 650.48 423.76 648.504 422.179C646.33 420.4 643.366 420.203 640.797 421.191C638.229 422.376 636.253 424.55 635.66 427.316C635.066 430.084 635.858 432.85 637.438 435.221C640.6 439.569 646.528 440.556 651.271 438.185C656.014 435.616 657.99 430.281 656.211 425.143C655.42 422.771 653.84 420.598 651.469 419.215C648.701 417.634 645.145 417.436 641.982 418.029C636.648 419.018 630.324 422.771 630.521 429.095ZM640.403 413.286C639.216 413.681 638.229 414.274 637.24 415.065C638.229 414.67 639.216 414.473 640.205 414.274C647.121 412.891 655.42 414.67 659.372 420.795C658.582 419.017 657.396 417.634 655.816 416.25C651.864 412.694 645.738 411.112 640.403 413.286ZM659.965 435.221C658.977 437 657.791 438.58 656.211 439.964C650.48 444.706 642.379 444.904 636.253 441.15C631.115 437.988 627.36 431.466 629.139 425.736C629.139 425.539 629.139 425.539 629.139 425.34C629.139 425.143 629.139 425.142 629.139 424.945C628.743 425.934 628.348 427.119 628.15 428.305C627.163 434.035 629.534 439.766 634.276 443.125C639.216 446.683 645.54 447.275 650.875 444.706C655.025 442.928 658.187 439.569 659.965 435.221Z" fill="#E1F9F9" fill-opacity="0.76"/>
<path d="M1181.83 537.929C1181.43 540.499 1180.64 543.067 1179.85 545.636C1179.26 547.415 1176.69 546.624 1177.08 544.845C1177.87 542.673 1178.07 540.3 1178.47 537.929C1178.86 535.755 1178.86 533.384 1178.86 531.21C1178.86 526.665 1178.07 521.922 1176.89 517.575C1174.32 508.682 1169.18 500.581 1162.26 494.455C1148.43 482.005 1127.29 476.473 1109.3 481.808C1101 484.376 1094.09 489.515 1089.54 497.024C1085.59 503.742 1083.81 511.845 1084.41 519.749C1085.79 536.744 1100.02 549.786 1116.02 553.145C1124.32 554.924 1133.02 554.134 1140.53 550.576C1147.84 547.019 1154.56 540.894 1157.32 532.989C1163.65 514.611 1145.66 497.814 1128.67 495.838C1119.38 494.653 1110.09 497.814 1104.16 505.126C1101.6 508.485 1099.62 512.438 1099.42 516.785C1099.03 521.725 1100.61 526.467 1103.18 530.617C1108.12 538.325 1117.4 543.462 1126.69 542.87C1135.59 542.276 1143.49 535.953 1145.47 527.259C1147.44 518.761 1142.11 509.869 1133.81 507.497C1125.9 505.126 1118.39 510.264 1116.42 517.97C1115.43 521.528 1116.02 525.48 1118.2 528.444C1120.96 532.001 1125.9 534.175 1130.45 532.594C1134.6 531.21 1137.76 526.665 1136.57 522.317C1135.59 518.366 1130.64 515.006 1126.69 516.982C1123.33 518.564 1121.56 523.109 1123.53 526.468C1124.12 527.259 1122.74 528.049 1122.15 527.259C1119.97 523.899 1120.96 519.354 1123.93 516.785C1127.29 513.821 1132.03 514.216 1135.19 516.982C1138.75 519.946 1139.54 524.689 1137.56 528.839C1135.59 532.791 1131.04 535.36 1126.69 534.965C1122.15 534.57 1117.8 531.804 1115.63 527.654C1113.85 524.096 1113.85 519.946 1115.23 516.39C1118 508.287 1126.3 503.347 1134.79 505.916C1143.69 508.682 1149.42 517.772 1147.84 527.061C1146.26 536.546 1137.96 543.857 1128.67 545.241C1118.59 546.624 1108.51 541.684 1102.59 533.78C1096.46 525.48 1095.67 514.414 1101.6 505.719C1114.24 487.144 1142.11 492.084 1154.75 507.892C1160.68 515.401 1163.45 525.283 1160.29 534.57C1157.32 543.463 1149.81 550.379 1141.51 554.134C1124.12 562.038 1102.39 555.911 1090.53 541.289C1084.8 534.175 1081.84 525.282 1082.03 515.995C1082.23 507.102 1085.39 498.21 1090.93 491.292C1104.56 474.299 1130.25 474.694 1148.83 482.599C1158.51 486.748 1167.01 493.466 1172.93 501.964C1178.86 510.461 1182.42 520.935 1182.42 531.408C1182.42 532.791 1182.22 535.36 1181.83 537.929Z" fill="#FFAEE9"/>
</g>
<defs>
<clipPath id="clip0_389_293">
<rect width="1600" height="999" fill="white"/>
</clipPath>
</defs>
</svg>
